<svg width="40" height="40" viewBox="0 0 40 40" fill="none" xmlns="http://www.w3.org/2000/svg">
<g id="Icon/BorrowFilled">
<path id="Exclude" fill-rule="evenodd" clip-rule="evenodd" d="M35 20.3343V29.6676C35 31.5345 35 32.4679 34.6367 33.1809C34.3171 33.8081 33.8072 34.3181 33.18 34.6377C32.4669 35.001 31.5335 35.001 29.6667 35.001H10.3333C8.46649 35.001 7.53307 35.001 6.82003 34.6377C6.19282 34.3181 5.68289 33.8081 5.36331 33.1809C5 32.4679 5 31.5345 5 29.6676V20.3343C5 18.4675 5 17.534 5.36331 16.821C5.68289 16.1938 6.19282 15.6839 6.82003 15.3643C7.53307 15.001 8.46649 15.001 10.3333 15.001H13.3333H26.6667H29.6667C31.5335 15.001 32.4669 15.001 33.18 15.3643C33.8072 15.6839 34.3171 16.1938 34.6367 16.821C35 17.534 35 18.4675 35 20.3343ZM20 28.3343C21.841 28.3343 23.3333 26.8419 23.3333 25.001C23.3333 23.16 21.841 21.6676 20 21.6676C18.159 21.6676 16.6667 23.16 16.6667 25.001C16.6667 26.8419 18.159 28.3343 20 28.3343ZM20.8847 17.9666C20.3965 18.4547 19.6051 18.4547 19.1169 17.9666L14.9503 13.7999C14.4621 13.3117 14.4621 12.5203 14.9503 12.0321C15.4384 11.544 16.2299 11.544 16.718 12.0321L18.7508 14.0649V5.41602C18.7508 4.72566 19.3105 4.16602 20.0008 4.16602C20.6912 4.16602 21.2508 4.72566 21.2508 5.41602V14.0649L23.2836 12.0321C23.7718 11.544 24.5632 11.544 25.0514 12.0321C25.5395 12.5203 25.5395 13.3117 25.0514 13.7999L20.8847 17.9666Z" fill="#8C8C8C"/>
</g>
</svg>
