<svg width="40" height="41" viewBox="0 0 40 41" fill="none" xmlns="http://www.w3.org/2000/svg">
<g id="Icon/LendFilled">
<path id="Exclude" fill-rule="evenodd" clip-rule="evenodd" d="M35 20.8327V30.166C35 32.0329 35 32.9663 34.6367 33.6793C34.3171 34.3065 33.8072 34.8165 33.18 35.136C32.4669 35.4993 31.5335 35.4993 29.6667 35.4993H10.3333C8.46649 35.4993 7.53307 35.4993 6.82003 35.136C6.19282 34.8165 5.68289 34.3065 5.36331 33.6793C5 32.9663 5 32.0329 5 30.166V20.8327C5 18.9658 5 18.0324 5.36331 17.3194C5.68289 16.6922 6.19282 16.1822 6.82003 15.8627C7.53307 15.4993 8.46649 15.4993 10.3333 15.4993H13.3333H26.6667H29.6667C31.5335 15.4993 32.4669 15.4993 33.18 15.8627C33.8072 16.1822 34.3171 16.6922 34.6367 17.3194C35 18.0324 35 18.9658 35 20.8327ZM20 28.8327C21.841 28.8327 23.3333 27.3403 23.3333 25.4993C23.3333 23.6584 21.841 22.166 20 22.166C18.159 22.166 16.6667 23.6584 16.6667 25.4993C16.6667 27.3403 18.159 28.8327 20 28.8327ZM19.1161 6.28213C19.6043 5.79398 20.3957 5.79398 20.8839 6.28213L25.0506 10.4488C25.5387 10.937 25.5387 11.7284 25.0506 12.2166C24.5624 12.7047 23.7709 12.7047 23.2828 12.2166L21.25 10.1838V18.8327C21.25 19.523 20.6904 20.0827 20 20.0827C19.3096 20.0827 18.75 19.523 18.75 18.8327V10.1838L16.7172 12.2166C16.2291 12.7047 15.4376 12.7047 14.9495 12.2166C14.4613 11.7284 14.4613 10.937 14.9495 10.4488L19.1161 6.28213Z" fill="#8C8C8C"/>
</g>
</svg>
