<svg width="1440" height="287" viewBox="0 0 1440 287" fill="none" xmlns="http://www.w3.org/2000/svg">
<g opacity="0.4" stroke="#8ae319" stroke-width="3" stroke-miterlimit="10">
<path d="M-727 652H2166.55L955.357 -366H484.191L-727 652Z" stroke="#8CEA15" stroke-width="3" stroke-miterlimit="10"/>
<path d="M50.2582 -1.28174H1389.29"/>
<path d="M-5.39661 45.4951H1444.94"/>
<path d="M-71.1428 100.757H1510.69"/>
<path d="M-150.001 167.037H1589.55"/>
<path d="M-246.329 247.997H1685.87"/>
<path d="M2073.21 652L940.157 -366"/>
<path d="M1979.87 652L924.958 -366"/>
<path d="M1886.53 652L909.758 -366"/>
<path d="M1793.18 652L894.559 -366"/>
<path d="M1699.85 652L879.364 -366"/>
<path d="M1606.51 652L864.163 -366"/>
<path d="M1513.17 652L848.965 -366"/>
<path d="M1419.83 652L833.766 -366"/>
<path d="M1326.49 652L818.567 -366"/>
<path d="M1233.14 652L803.367 -366"/>
<path d="M1139.8 652L788.168 -366" />
<path d="M1046.46 652L772.969 -366"/>
<path d="M953.125 652L757.771 -366"/>
<path d="M859.784 652L742.572 -366"/>
<path d="M766.446 652L727.375 -366"/>
<path d="M673.105 652L712.175 -366"/>
<path d="M579.764 652L696.975 -366"/>
<path d="M486.422 652L681.776 -366"/>
<path d="M393.081 652L666.576 -366"/>
<path d="M299.745 652L651.38 -366" />
<path d="M206.403 652L636.18 -366"/>
<path d="M113.062 652L620.981 -366"/>
<path d="M19.7206 652L605.781 -366"/>
<path d="M-73.6182 652L590.583 -366"/>
<path d="M-166.959 652L575.383 -366"/>
<path d="M-260.298 652L560.186 -366"/>
<path d="M-353.64 652L544.986 -366"/>
<path d="M-446.979 652L529.788 -366"/>
<path d="M-540.317 652L514.591 -366"/>
<path d="M-633.659 652L499.391 -366"/>
</g>
</svg>
