<svg width="1624" height="696" viewBox="0 0 1624 696" fill="none" xmlns="http://www.w3.org/2000/svg">
<g opacity="0.5" stroke="#54c425" stroke-width="3" stroke-miterlimit="10">
<path d="M-993.14 846H2616.69L1105.67 -424H517.874L-993.14 846Z"/>
<path d="M-23.4761 31.0021H1647.02"/>
<path d="M-92.9077 89.3585H1716.46"/>
<path d="M-174.929 158.3H1798.48"/>
<path d="M-273.309 240.987H1896.86"/>
<path d="M-393.481 341.988H2017.02"/>
<path d="M-543.579 468.147H2167.13"/>
<path d="M-736.382 630.197H2359.93"/>
<path d="M2500.24 846L1086.71 -424"/>
<path d="M2383.79 846L1067.75 -424"/>
<path d="M2267.35 846L1048.79 -424"/>
<path d="M2150.9 846L1029.83 -424"/>
<path d="M2034.46 846L1010.87 -424"/>
<path d="M1918.01 846L991.906 -424"/>
<path d="M1801.57 846L972.946 -424"/>
<path d="M1685.12 846L953.985 -424"/>
<path d="M1568.67 846L935.023 -424"/>
<path d="M1452.23 846L916.061 -424"/>
<path d="M1335.78 846L897.099 -424"/>
<path d="M1219.33 846L878.137 -424"/>
<path d="M1102.89 846L859.178 -424"/>
<path d="M986.443 846L840.216 -424"/>
<path d="M869.999 846L821.257 -424"/>
<path d="M753.553 846L802.295 -424"/>
<path d="M637.105 846L783.332 -424"/>
<path d="M520.658 846L764.37 -424"/>
<path d="M404.21 846L745.407 -424"/>
<path d="M287.77 846L726.451 -424"/>
<path d="M171.322 846L707.488 -424"/>
<path d="M54.874 846L688.525 -424"/>
<path d="M-61.5732 846L669.563 -424"/>
<path d="M-178.018 846L650.603 -424"/>
<path d="M-294.465 846L631.64 -424"/>
<path d="M-410.909 846L612.681 -424"/>
<path d="M-527.356 846L593.719 -424"/>
<path d="M-643.801 846L574.758 -424"/>
<path d="M-760.245 846L555.799 -424"/>
<path d="M-876.693 846L536.836 -424"/>
</g>
</svg>
